<svg width="300" height="255" viewBox="0 0 300 255" fill="none" xmlns="http://www.w3.org/2000/svg">
<path d="M210.94 23.1537C241.081 30.5507 265.918 63.1604 265.596 95.3603C265.281 127.49 239.802 159.21 218.49 189.73C197.238 220.254 180.273 249.597 158.732 251.192C137.165 252.763 111.056 226.554 89.4594 209.178C67.7955 191.806 50.6938 183.258 35.9479 167.98C21.202 152.703 8.87207 130.688 11.7113 110.951C14.5504 91.2137 32.5663 73.7652 51.4258 64.228C70.3492 54.6248 90.0522 52.9368 117.663 43.1849C145.274 33.4329 180.77 15.7024 210.94 23.1537Z" fill="#F8F8F8"/>
<path d="M195.979 172.2L156.439 92.1024C155.236 91.3825 150.406 88.1963 150.406 88.1963" stroke="#DFDFDF" stroke-width="5" stroke-linecap="round" stroke-linejoin="round"/>
<path d="M153.626 98.456C153.152 96.8534 151.734 93.5519 151.734 93.5519C150.872 93.4992 144.863 90.3269 144.863 90.3269" stroke="#DFDFDF" stroke-width="5" stroke-linecap="round" stroke-linejoin="round"/>
<path d="M143.146 90.6253L161.794 82.7387" stroke="#DFDFDF" stroke-width="5" stroke-linecap="round" stroke-linejoin="round"/>
<path d="M9.33175 213.35L4.54295 217.929L16.0885 233.477L19.6447 230.22L14.1351 216.377L9.33175 213.35Z" fill="black"/>
<path d="M102.292 198.961L98.3416 206.501L108.216 222.285L112.36 221.174L109.601 200.555L102.292 198.961Z" fill="black"/>
<path d="M146.964 92.1206C150.2 92.1144 152.819 90.0911 152.815 87.6015C152.81 85.112 150.183 83.0988 146.946 83.105C143.71 83.1112 141.091 85.1344 141.096 87.624C141.1 90.1136 143.728 92.1268 146.964 92.1206Z" fill="#D37C59"/>
<path d="M68.7685 92.523C66.1399 96.4107 8.4363 213.81 8.4363 213.81L14.9966 217.921L91.2778 132.479L68.7685 92.523Z" fill="#56CAD8"/>
<path d="M118.621 63.9671C120.13 65.2921 124.554 70.4476 125.998 71.3845C127.442 72.3213 144.005 82.9282 147.11 83.8618C150.215 84.7955 143.626 87.6037 143.626 87.6037C143.626 87.6037 122.065 82.7179 120.47 81.626C118.875 80.5341 109.42 72.717 109.416 70.6165C109.412 68.5159 118.621 63.9671 118.621 63.9671Z" fill="#D37C59"/>
<path d="M105.976 53.8964C110.774 48.5096 120.19 61.2462 119.991 63.122C119.791 64.9977 113.163 72.8768 108.953 72.8848C107.692 72.8873 102.605 57.6807 105.976 53.8964Z" fill="#FCC486"/>
<path d="M68.0252 93.7047C66.8985 95.26 62.0268 107.694 62.035 111.965C62.0909 141.085 104.214 148.56 110.262 148.548C109.396 152.615 100.221 198.806 100.66 199.818C101.098 200.831 108.788 202.886 110.366 202.615C116.384 199.221 135.744 152.091 134.27 145.396C132.2 136.016 99.9311 108.631 95.2714 105.906C90.6116 103.182 68.0252 93.7047 68.0252 93.7047Z" fill="#74D5DE"/>
<path d="M95.7434 41.8796C128.155 41.8175 103.166 104.68 97.4709 108.096C93.7094 110.347 70.3454 101.858 67.8285 93.3013C66.9681 90.3793 77.8335 41.914 95.7434 41.8796Z" fill="#FED385"/>
<path d="M142.035 94.2539C145.271 94.2477 147.89 92.2244 147.886 89.7348C147.881 87.2453 145.254 85.2321 142.017 85.2383C138.781 85.2445 136.162 87.2677 136.167 89.7573C136.171 92.2469 138.799 94.2601 142.035 94.2539Z" fill="#DE8E68"/>
<path d="M85.4546 70.9031C85.5398 74.0713 86.5957 88.61 87.8732 89.0463C103.323 94.3282 130.055 91.9356 134.672 91.6084C139.288 91.2811 142.241 87.9247 142.01 87.1292C141.779 86.3337 127.246 80.2579 102.037 79.588C101.564 76.6536 102.666 67.7795 101.512 66.9896C100.358 66.1998 85.4546 70.9031 85.4546 70.9031Z" fill="#DE8E68"/>
<path d="M89.6935 44.582C103.098 41.7296 105.554 67.5371 104.27 69.4421C102.985 71.3471 85.9052 74.0706 83.6727 72.4131C81.4402 70.7555 79.5301 46.7408 89.6935 44.582Z" fill="#FED892"/>
<path d="M98.7819 25.8227C98.169 28.2545 93.9818 42.1781 94.243 42.9153C94.5043 43.6525 100.31 46.8951 102.535 46.5336C102.619 45.4735 103.554 39.7952 105.483 36.3786C107.412 32.962 98.7819 25.8227 98.7819 25.8227Z" fill="#D37C59"/>
<path d="M115.954 25.8594C116.665 18.4555 113.373 12.058 108.601 11.5703C103.83 11.0826 99.3851 16.6894 98.6741 24.0933C97.9631 31.4973 101.255 37.8948 106.026 38.3824C110.798 38.8701 115.243 33.2634 115.954 25.8594Z" fill="#DE8E68"/>
<path d="M97.3196 25.8255C96.3319 25.2683 94.454 21.9794 94.4481 18.9198C94.4389 14.1325 99.0618 11.3979 102.181 9.97477C104.54 8.87921 106.537 3.80845 111.915 3.79813C116.204 3.78991 116.499 8.2428 118.472 8.40985C123.587 8.83879 126.457 9.0313 126.464 12.8635C126.47 15.6785 122.982 23.3535 115.839 23.3672C115.836 21.9461 115.366 18.4176 114.598 16.7224C110.306 16.9519 106.822 22.6468 100.868 22.6349C99.5917 22.614 97.3196 25.8255 97.3196 25.8255Z" fill="#FD8369"/>
<path d="M100.097 28.2042C101.557 28.2014 102.738 26.7093 102.734 24.8716C102.731 23.0339 101.544 21.5464 100.084 21.5492C98.6242 21.552 97.4435 23.0441 97.4471 24.8818C97.4506 26.7195 98.637 28.207 100.097 28.2042Z" fill="#DE8E68"/>
<path d="M290.756 202.273L167.722 202.509L167.669 174.984C174.397 174.358 270.037 164.856 270.037 164.856L269.922 105.012L153.626 98.456L167.669 174.992" stroke="#DFDFDF" stroke-width="5" stroke-linecap="round" stroke-linejoin="round"/>
<path d="M177.64 217.698C180.793 217.692 183.344 215.052 183.337 211.801C183.331 208.55 180.77 205.92 177.617 205.926C174.464 205.932 171.913 208.572 171.919 211.823C171.926 215.074 174.487 217.704 177.64 217.698Z" stroke="#DFDFDF" stroke-width="5" stroke-linecap="round" stroke-linejoin="round"/>
<path d="M289.14 217.484C292.293 217.478 294.844 214.838 294.837 211.587C294.831 208.336 292.27 205.706 289.117 205.712C285.964 205.718 283.414 208.358 283.42 211.609C283.426 214.86 285.987 217.49 289.14 217.484Z" stroke="#DFDFDF" stroke-width="5" stroke-linecap="round" stroke-linejoin="round"/>
<path d="M158.216 123.463L269.957 123.249" stroke="#DFDFDF" stroke-width="5" stroke-linecap="round" stroke-linejoin="round"/>
<path d="M161.337 140.471L269.99 140.263" stroke="#DFDFDF" stroke-width="5" stroke-linecap="round" stroke-linejoin="round"/>
<path d="M133.706 94.6154L143.147 90.6253" stroke="#DFDFDF" stroke-width="5" stroke-linecap="round" stroke-linejoin="round"/>
<path d="M170.792 140.453C169.562 136.887 156.504 98.6097 156.504 98.6097" stroke="#DFDFDF" stroke-width="5" stroke-linecap="round" stroke-linejoin="round"/>
</svg>
